<mxfile host="app.diagrams.net" modified="2020-12-23T16:12:31.679Z" agent="5.0 (X11; Linux x86_64) AppleWebKit/537.36 (KHTML, like Gecko) Chrome/87.0.4280.88 Safari/537.36" etag="elS_edIln_wJsSlXS_55" version="14.0.5" type="github">
  <diagram id="fcNTQIonAr8g9Fvxr2od" name="Page-1">
    <mxGraphModel dx="981" dy="461" grid="1" gridSize="10" guides="1" tooltips="1" connect="1" arrows="1" fold="1" page="1" pageScale="1" pageWidth="850" pageHeight="1100" math="0" shadow="0">
      <root>
        <mxCell id="0" />
        <mxCell id="1" parent="0" />
        <mxCell id="ZbvPQ6vy6DvIytjsT4os-8" value="&lt;p style=&quot;margin: 0px ; margin-top: 6px ; text-align: center&quot;&gt;&lt;b&gt;User input&lt;/b&gt;&lt;/p&gt;&lt;hr&gt;&lt;p style=&quot;margin: 0px ; margin-left: 8px&quot;&gt;+ Name: //todo&lt;br&gt;+ Object to track&lt;/p&gt;&lt;p style=&quot;margin: 0px ; margin-left: 8px&quot;&gt;+ Shutter speed&lt;/p&gt;&lt;p style=&quot;margin: 0px ; margin-left: 8px&quot;&gt;+ N. of exposures&lt;/p&gt;" style="align=left;overflow=fill;html=1;dropTarget=0;" parent="1" vertex="1">
          <mxGeometry x="20" y="20" width="140" height="170" as="geometry" />
        </mxCell>
        <mxCell id="ZbvPQ6vy6DvIytjsT4os-9" value="" style="shape=component;jettyWidth=8;jettyHeight=4;" parent="ZbvPQ6vy6DvIytjsT4os-8" vertex="1">
          <mxGeometry x="1" width="20" height="20" relative="1" as="geometry">
            <mxPoint x="-24" y="4" as="offset" />
          </mxGeometry>
        </mxCell>
        <mxCell id="ZbvPQ6vy6DvIytjsT4os-22" value="&lt;p style=&quot;margin: 0px ; margin-top: 4px ; text-align: center&quot;&gt;&lt;i&gt;Rails API&lt;/i&gt;&lt;/p&gt;&lt;hr size=&quot;1&quot;&gt;&lt;div style=&quot;text-align: center&quot;&gt;&lt;span&gt;Create&lt;/span&gt;&lt;/div&gt;&lt;p style=&quot;margin: 0px ; margin-left: 4px&quot;&gt;+ Name&lt;br&gt;+ Objects to track&lt;/p&gt;&lt;p style=&quot;margin: 0px ; margin-left: 4px&quot;&gt;+ Shutter speed&lt;/p&gt;&lt;p style=&quot;margin: 0px ; margin-left: 4px&quot;&gt;+ N. of exposures&lt;/p&gt;&lt;hr size=&quot;1&quot;&gt;&lt;p style=&quot;text-align: center ; margin: 0px 0px 0px 4px&quot;&gt;Update&lt;/p&gt;&lt;p style=&quot;margin: 0px ; margin-left: 4px&quot;&gt;&lt;/p&gt;&lt;div&gt;&lt;span&gt;+ Current position&lt;/span&gt;&lt;/div&gt;+ Position T&lt;sub&gt;finish+error&lt;/sub&gt;&lt;br&gt;+ Total time&lt;br&gt;&lt;p&gt;&lt;/p&gt;" style="verticalAlign=top;align=left;overflow=fill;fontSize=12;fontFamily=Helvetica;html=1;" parent="1" vertex="1">
          <mxGeometry x="280" y="20" width="200" height="180" as="geometry" />
        </mxCell>
        <mxCell id="ZbvPQ6vy6DvIytjsT4os-24" value="Post to &#39;tasks#new&#39;" style="html=1;verticalAlign=bottom;startArrow=oval;startFill=1;endArrow=block;startSize=8;" parent="1" edge="1">
          <mxGeometry width="60" relative="1" as="geometry">
            <mxPoint x="160" y="107" as="sourcePoint" />
            <mxPoint x="280" y="107" as="targetPoint" />
          </mxGeometry>
        </mxCell>
        <mxCell id="ZbvPQ6vy6DvIytjsT4os-25" value="&lt;p style=&quot;margin: 0px ; margin-top: 4px ; text-align: center&quot;&gt;&lt;i&gt;Python &quot;calculator&quot;&lt;/i&gt;&lt;/p&gt;&lt;hr size=&quot;1&quot;&gt;&lt;div style=&quot;text-align: center&quot;&gt;&lt;span&gt;Parameters&lt;/span&gt;&lt;/div&gt;&lt;p style=&quot;margin: 0px ; margin-left: 4px&quot;&gt;+ Id&lt;br&gt;+ Objects to track&lt;/p&gt;&lt;p style=&quot;margin: 0px ; margin-left: 4px&quot;&gt;+ Total time&lt;font style=&quot;font-size: 8px&quot;&gt;(Shutter speed + N. of exposures)&lt;/font&gt;&lt;/p&gt;&lt;hr size=&quot;1&quot;&gt;&lt;p style=&quot;margin: 0px ; margin-left: 4px&quot;&gt;+ Id&lt;br&gt;+ Current position&lt;/p&gt;&lt;p style=&quot;margin: 0px ; margin-left: 4px&quot;&gt;+ Position T&lt;sub&gt;finish&amp;nbsp;+ error&lt;/sub&gt;&lt;/p&gt;" style="verticalAlign=top;align=left;overflow=fill;fontSize=12;fontFamily=Helvetica;html=1;" parent="1" vertex="1">
          <mxGeometry x="600" y="20" width="190" height="150" as="geometry" />
        </mxCell>
        <mxCell id="ZbvPQ6vy6DvIytjsT4os-28" value="dispatch" style="html=1;verticalAlign=bottom;endArrow=block;exitX=0.999;exitY=0.226;exitDx=0;exitDy=0;exitPerimeter=0;entryX=0;entryY=0.271;entryDx=0;entryDy=0;entryPerimeter=0;" parent="1" target="ZbvPQ6vy6DvIytjsT4os-25" edge="1" source="ZbvPQ6vy6DvIytjsT4os-22">
          <mxGeometry relative="1" as="geometry">
            <mxPoint x="480" y="50" as="sourcePoint" />
            <mxPoint x="600" y="46" as="targetPoint" />
          </mxGeometry>
        </mxCell>
        <mxCell id="ZbvPQ6vy6DvIytjsT4os-29" value="put to &#39;tasks#return&#39;" style="html=1;verticalAlign=bottom;endArrow=open;dashed=1;endSize=8;entryX=1;entryY=0.724;entryDx=0;entryDy=0;entryPerimeter=0;" parent="1" target="ZbvPQ6vy6DvIytjsT4os-22" edge="1">
          <mxGeometry relative="1" as="geometry">
            <mxPoint x="480" y="104.71000000000001" as="targetPoint" />
            <mxPoint x="598" y="150" as="sourcePoint" />
          </mxGeometry>
        </mxCell>
        <mxCell id="ZbvPQ6vy6DvIytjsT4os-34" value="&lt;p style=&quot;margin: 0px ; margin-top: 4px ; text-align: center ; text-decoration: underline&quot;&gt;&lt;b&gt;Task object&lt;/b&gt;&lt;/p&gt;&lt;hr&gt;&lt;p style=&quot;margin: 0px ; margin-left: 8px&quot;&gt;+ Name&lt;br&gt;+ Objects to track&lt;br&gt;+ Shutter speed&lt;/p&gt;&lt;p style=&quot;margin: 0px ; margin-left: 8px&quot;&gt;+ N. of exposures&lt;/p&gt;&lt;p style=&quot;margin: 0px ; margin-left: 8px&quot;&gt;&lt;br&gt;&lt;/p&gt;" style="verticalAlign=top;align=left;overflow=fill;fontSize=12;fontFamily=Helvetica;html=1;" parent="1" vertex="1">
          <mxGeometry x="20" y="270" width="160" height="90" as="geometry" />
        </mxCell>
        <mxCell id="ZbvPQ6vy6DvIytjsT4os-36" value="&lt;p style=&quot;margin: 0px ; margin-top: 4px ; text-align: center&quot;&gt;&lt;b&gt;Arduino&lt;/b&gt;&lt;/p&gt;&lt;hr size=&quot;1&quot;&gt;&lt;p style=&quot;margin: 0px ; margin-left: 4px&quot;&gt;+ Current position&lt;/p&gt;&lt;p style=&quot;margin: 0px ; margin-left: 4px&quot;&gt;+ Position T&lt;sub&gt;finish+error&lt;/sub&gt;&lt;/p&gt;&lt;p style=&quot;margin: 0px ; margin-left: 4px&quot;&gt;+ Total time&lt;/p&gt;&lt;hr size=&quot;1&quot;&gt;&lt;p style=&quot;margin: 0px ; margin-left: 4px&quot;&gt;+ Status info&lt;/p&gt;" style="verticalAlign=top;align=left;overflow=fill;fontSize=12;fontFamily=Helvetica;html=1;" parent="1" vertex="1">
          <mxGeometry x="600" y="270" width="200" height="110" as="geometry" />
        </mxCell>
        <mxCell id="hXzfbazBJLAiQzN4rG63-12" value="&lt;p style=&quot;margin: 0px ; margin-top: 4px ; text-align: center&quot;&gt;&lt;i&gt;Serial listener&lt;/i&gt;&lt;/p&gt;&lt;hr size=&quot;1&quot;&gt;&lt;div style=&quot;text-align: center&quot;&gt;Send&lt;/div&gt;&lt;div&gt;+ Input -&amp;gt; data_json&lt;/div&gt;&lt;div&gt;+ Output -&amp;gt; string&lt;/div&gt;&lt;hr size=&quot;1&quot;&gt;&lt;p style=&quot;text-align: center ; margin: 0px 0px 0px 4px&quot;&gt;Rcieve&lt;/p&gt;&lt;p style=&quot;margin: 0px ; margin-left: 4px&quot;&gt;&lt;/p&gt;&lt;div&gt;&lt;span&gt;+ Input -&amp;gt; string&lt;/span&gt;&lt;/div&gt;&lt;div&gt;&lt;span&gt;+ Output -&amp;gt; data_json&lt;/span&gt;&lt;/div&gt;&lt;br&gt;&lt;p&gt;&lt;/p&gt;" style="verticalAlign=top;align=left;overflow=fill;fontSize=12;fontFamily=Helvetica;html=1;" vertex="1" parent="1">
          <mxGeometry x="280" y="270" width="200" height="140" as="geometry" />
        </mxCell>
      </root>
    </mxGraphModel>
  </diagram>
</mxfile>
